<svg width="13" height="13" viewBox="0 0 13 13" fill="none" xmlns="http://www.w3.org/2000/svg">
<path d="M1.64004 0.27L6.50004 5.13L11.34 0.29C11.5114 0.1076 11.7497 0.0029 12 0C12.5523 0 13 0.4477 13 1C13.0047 1.2478 12.907 1.4866 12.73 1.66L7.84004 6.5L12.73 11.39C12.8948 11.5512 12.9915 11.7696 13 12C13 12.5523 12.5523 13 12 13C11.7423 13.0107 11.492 12.9127 11.31 12.73L6.50004 7.87L1.65004 12.72C1.47934 12.8963 1.24534 12.9971 1.00004 13C0.44774 13 4.0002e-05 12.5523 4.0002e-05 12C-0.00466 11.7522 0.09304 11.5134 0.27004 11.34L5.16004 6.5L0.27004 1.61C0.10524 1.4488 0.00854 1.2304 4.0002e-05 1C4.0002e-05 0.4477 0.44774 0 1.00004 0C1.24044 0.0029 1.47014 0.0998 1.64004 0.27Z" fill="white"/>
</svg>
