<svg width="17" height="19" viewBox="0 0 17 19" fill="none" xmlns="http://www.w3.org/2000/svg">
<path fill-rule="evenodd" clip-rule="evenodd" d="M7.42278 18.5424L3.49676 14.5345C2.39275 13.4272 4.04904 11.7657 5.15358 12.873L6.49742 14.2258C6.80333 14.5339 7.05161 14.4318 7.05161 13.9978V8.61128C7.05161 7.96777 7.57603 7.43951 8.22282 7.43951C8.86851 7.43951 9.3943 7.96421 9.3943 8.61128V13.9978C9.3943 14.4296 9.64231 14.5339 9.9485 14.2258L11.2926 12.873C12.3969 11.7657 14.0534 13.4272 12.9494 14.5345L9.06383 18.537C8.60961 19.0049 7.87655 19.0057 7.42282 18.5424L7.42278 18.5424ZM2.34954 2.74202V5.09016C2.34954 5.73913 1.82348 6.26493 1.17477 6.26493C0.526077 6.26493 0 5.73915 0 5.09016V1.56424C0 0.698667 0.705799 0 1.56641 0H14.8797C15.7439 0 16.4461 0.703352 16.4461 1.56424V5.09016C16.4461 5.73913 15.92 6.26493 15.2713 6.26493C14.6226 6.26493 14.0965 5.73915 14.0965 5.09016V2.74202C14.0965 2.52078 13.9215 2.34925 13.7057 2.34925H2.74042C2.52465 2.34925 2.34957 2.52515 2.34957 2.74202H2.34954Z" fill="#757575"/>
</svg>
