<svg width="19" height="18" viewBox="0 0 19 18" fill="none" xmlns="http://www.w3.org/2000/svg">
<path d="M18.9402 8.00353C18.9098 7.74962 18.5979 7.56065 18.3281 7.56065C17.7544 7.57258 17.2008 7.36087 16.7969 6.97485C16.393 6.58885 16.1742 6.06271 16.1922 5.51951C16.2099 4.9764 16.4627 4.46409 16.8911 4.10258C16.9905 4.01719 17.052 3.89916 17.0629 3.77244C17.0739 3.64574 17.0335 3.51979 16.9499 3.42022C16.5059 2.88843 16.0003 2.40537 15.4426 1.98017C15.3371 1.90031 15.2034 1.86176 15.0688 1.87206C14.9342 1.88248 14.8088 1.94112 14.7184 2.03593C14.4207 2.33278 14.0367 2.53921 13.6152 2.62925C13.1935 2.71928 12.7532 2.68889 12.3498 2.54172C11.9502 2.37986 11.6129 2.10537 11.3837 1.75566C11.1545 1.40581 11.0446 0.997847 11.0687 0.586861C11.0759 0.459155 11.0316 0.333586 10.9447 0.235634C10.858 0.137688 10.7351 0.0746533 10.601 0.0593325C9.89127 -0.0178918 9.1746 -0.0197755 8.46441 0.0539329C8.33222 0.0678711 8.21036 0.128396 8.1231 0.223452C8.03572 0.318382 7.98931 0.441064 7.99303 0.567028C8.00841 0.974382 7.89186 1.37659 7.65915 1.71953C7.42645 2.06246 7.08858 2.32991 6.69096 2.48601C6.28919 2.6274 5.8527 2.65491 5.43475 2.565C5.01682 2.47521 4.63559 2.27192 4.33766 1.98023C4.24763 1.88693 4.12379 1.82942 3.99092 1.819C3.85793 1.8087 3.72586 1.84637 3.621 1.92435C3.05243 2.34713 2.53715 2.83035 2.08515 3.36452C2.00135 3.46435 1.96037 3.59055 1.97059 3.71774C1.9808 3.84482 2.04139 3.96373 2.14017 4.05039C2.4653 4.32627 2.69163 4.69106 2.78804 5.09426C2.88443 5.49747 2.84598 5.919 2.67812 6.30061C2.49739 6.67254 2.20476 6.9857 1.8368 7.20095C1.46898 7.41618 1.04217 7.52379 0.610019 7.51036C0.475834 7.50232 0.343634 7.54401 0.241553 7.62663C0.139323 7.70938 0.0751478 7.82642 0.062551 7.95311C-0.0208503 8.63258 -0.0208503 9.3188 0.062551 9.99814C0.0872136 10.261 0.410481 10.441 0.682307 10.441C1.10118 10.4377 1.5113 10.5538 1.85977 10.774C2.20824 10.9941 2.47871 11.3083 2.63638 11.6759C2.79749 12.0538 2.83289 12.4694 2.73822 12.8669C2.64341 13.2645 2.4229 13.6251 2.106 13.901C2.00709 13.9862 1.94596 14.1039 1.93495 14.2302C1.92408 14.3564 1.96412 14.482 2.04713 14.5814C2.48881 15.114 2.99333 15.5972 3.55076 16.0215C3.65578 16.1017 3.78917 16.141 3.92374 16.1312C4.05833 16.1216 4.1839 16.0637 4.275 15.9694C4.57307 15.672 4.95745 15.465 5.37965 15.3743C5.80185 15.2836 6.243 15.3134 6.64727 15.4599C7.04812 15.6199 7.38662 15.8936 7.61642 16.2435C7.84621 16.5932 7.95586 17.0018 7.9304 17.4131C7.92311 17.5408 7.9674 17.6663 8.05425 17.7643C8.1411 17.8622 8.26388 17.9251 8.39793 17.9406C8.76151 17.9796 9.12706 17.9995 9.49291 18C9.84162 18.0006 10.1901 17.982 10.5364 17.9441C10.6694 17.9302 10.7918 17.8691 10.8792 17.7733C10.9666 17.6775 11.0126 17.554 11.008 17.4275C10.9918 17.0204 11.1074 16.6183 11.3396 16.2753C11.5716 15.9322 11.9089 15.6647 12.3062 15.5085C12.7077 15.3678 13.144 15.3413 13.5611 15.4324C13.9782 15.5236 14.3581 15.7284 14.6538 16.0215C14.7438 16.1148 14.8677 16.1723 15.0005 16.1827C15.1335 16.193 15.2656 16.1553 15.3705 16.0773C15.9381 15.6537 16.4534 15.1705 16.9063 14.6372C16.991 14.5377 17.0325 14.4113 17.0222 14.2839C17.012 14.1565 16.9509 14.0376 16.8513 13.9513C16.4211 13.5922 16.1656 13.0816 16.1444 12.5389C16.1233 11.9963 16.3384 11.4693 16.7394 11.0811C17.1405 10.693 17.6922 10.4777 18.2655 10.4859H18.3834H18.3833C18.5181 10.4928 18.6507 10.4509 18.7542 10.3686C18.8576 10.2864 18.9242 10.1701 18.9403 10.0431C19.0199 9.36531 19.0199 8.68122 18.9403 8.00351L18.9402 8.00353ZM9.51381 12.0195C8.67341 12.0195 7.86737 11.7035 7.27307 11.1407C6.67877 10.5778 6.34503 9.81463 6.34503 9.01863C6.34503 8.22276 6.67877 7.45955 7.27307 6.89674C7.86737 6.33393 8.67341 6.01774 9.51381 6.01774C10.3542 6.01774 11.1601 6.33392 11.7544 6.89674C12.3487 7.45955 12.6826 8.22276 12.6826 9.01863C12.6815 9.81425 12.3474 10.577 11.7534 11.1395C11.1593 11.7022 10.3539 12.0187 9.51381 12.0195Z" fill="#757575"/>
</svg>
