<svg width="15" height="16" viewBox="0 0 15 16" fill="none" xmlns="http://www.w3.org/2000/svg">
<g id="Group">
<path id="Vector" d="M10.96 15.76L14.16 12.56C14.48 12.2401 14.48 11.76 14.16 11.4401C13.84 11.1201 13.36 11.1201 13.04 11.4401L11.2 13.28L11.2 4.00001C11.2 3.51998 10.88 3.20001 10.4 3.20001C9.91996 3.20001 9.59999 3.51998 9.59999 4.00001L9.59999 13.28L7.76005 11.4401C7.44008 11.1201 6.96005 11.1201 6.64008 11.4401C6.32011 11.76 6.32011 12.2401 6.64008 12.56L9.84008 15.76C10.16 16.08 10.64 16.08 10.96 15.76L10.96 15.76Z" fill="#757575"/>
<path id="Vector_2" d="M4.80002 12L4.80002 2.72L6.63996 4.55995C6.95993 4.87992 7.43996 4.87992 7.75993 4.55995C8.0799 4.23997 8.0799 3.75995 7.75993 3.43998L4.55993 0.239978C4.23996 -0.079993 3.75993 -0.079993 3.43996 0.239978L0.239965 3.43998C-0.0800068 3.75995 -0.0800068 4.23997 0.239965 4.55995C0.559936 4.87992 1.03996 4.87992 1.35994 4.55995L3.19999 2.72L3.19999 12C3.19999 12.48 3.51996 12.8 3.99999 12.8C4.48002 12.8 4.79999 12.48 4.79999 12L4.80002 12Z" fill="#757575"/>
</g>
</svg>
