<svg width="18" height="18" viewBox="0 0 18 18" fill="none" xmlns="http://www.w3.org/2000/svg">
<path d="M18.0005 8.89964C18.0005 3.98895 13.955 8.80541e-05 9.00026 8.80541e-05C8.77082 -0.00320042 8.54976 0.0857392 8.38621 0.246874C8.22283 0.408009 8.1309 0.62789 8.1309 0.857333C8.1309 1.08678 8.22283 1.30665 8.38621 1.46764C8.54973 1.62878 8.77082 1.71772 9.00026 1.71443C13.04 1.71443 16.2861 4.92714 16.2861 8.89966C16.2861 11.4807 14.9169 13.7545 12.8574 15.0268V13.2857H12.8576C12.8609 13.0564 12.7719 12.8352 12.6108 12.6718C12.4496 12.5084 12.2298 12.4164 12.0003 12.4164C11.7709 12.4164 11.551 12.5084 11.39 12.6718C11.2289 12.8352 11.1399 13.0564 11.1432 13.2857V16.7144C11.1432 16.9418 11.2335 17.1597 11.3943 17.3206C11.555 17.4813 11.7731 17.5716 12.0003 17.5716H15.4291C15.661 17.5753 15.8845 17.4847 16.0486 17.3206C16.2126 17.1566 16.3032 16.933 16.2996 16.701C16.296 16.4738 16.2023 16.257 16.039 16.0989C15.8758 15.9406 15.6564 15.8538 15.4291 15.8574H14.6455C16.6933 14.2173 18.0005 11.7009 18.0005 8.89983L18.0005 8.89964ZM9.87082 17.1295V17.1297C9.86723 16.9023 9.77351 16.6857 9.61028 16.5275C9.44705 16.3692 9.22762 16.2823 9.00028 16.2859C4.96052 16.2859 1.71441 13.0732 1.71441 9.10067C1.71441 6.51308 3.0869 4.23054 5.15641 2.95972V4.7143V4.71415C5.15312 4.9436 5.24206 5.16481 5.40304 5.32821C5.56418 5.49158 5.78406 5.58352 6.0135 5.58352C6.24295 5.58352 6.46282 5.49159 6.62396 5.32821C6.7851 5.16483 6.87389 4.94359 6.87075 4.71415V1.28543V1.28558C6.8706 1.05822 6.78032 0.840122 6.61963 0.679442C6.45879 0.518755 6.24085 0.42847 6.01349 0.428321H2.58477H2.58492C2.35757 0.424883 2.13812 0.511729 1.97477 0.670025C1.81154 0.828171 1.71782 1.04477 1.71438 1.2721C1.71064 1.50409 1.80122 1.7277 1.96535 1.89167C2.12933 2.0558 2.35295 2.14623 2.58492 2.14264H3.35502C1.30526 3.78269 0 6.29911 0 9.10019C0 14.0109 4.0455 17.9997 9.00019 17.9997V17.9999C9.23218 18.0035 9.45564 17.9129 9.61976 17.7489C9.78374 17.5848 9.87432 17.3613 9.87073 17.1294L9.87082 17.1295Z" fill="#757575"/>
</svg>
